<svg xmlns="http://www.w3.org/2000/svg" viewBox="0 0 64 64" role="img" aria-labelledby="title">
  <title id="title">Valoración de inventario</title>
  <defs>
    <linearGradient id="g" x1="8" y1="6" x2="55" y2="58" gradientUnits="userSpaceOnUse">
      <stop stop-color="#16a463"/>
      <stop offset="1" stop-color="#0b5c38"/>
    </linearGradient>
  </defs>
  <rect x="5" y="5" width="54" height="54" rx="15" fill="url(#g)"/>
  <path d="M18 24.5 32 17l14 7.5v16L32 48l-14-7.5v-16Z" fill="#fff" opacity=".16"/>
  <path d="m18 24.5 14 7.4 14-7.4M32 31.9V48" fill="none" stroke="#fff" stroke-width="3" stroke-linecap="round" stroke-linejoin="round"/>
  <path d="M36.5 22.5c-1.1-1-2.5-1.5-4.3-1.5-2.6 0-4.5 1.3-4.5 3.2 0 4.8 9.1 1.9 9.1 6.8 0 2.2-2 3.7-4.8 3.7-2 0-3.8-.7-5-2M32 18.7v18.4" fill="none" stroke="#fff" stroke-width="2.6" stroke-linecap="round"/>
</svg>
